<svg width="24" height="24" viewBox="0 0 24 24" fill="none" xmlns="http://www.w3.org/2000/svg">
<path fill-rule="evenodd" clip-rule="evenodd" d="M16.032 3H7.967C5.22533 3.00276 3.00331 5.22433 3 7.966V16.032C3.0022 18.7744 5.22455 20.9972 7.967 21H16.032C18.7746 20.9972 20.9972 18.7746 21 16.032V7.966C20.9961 5.22417 18.7738 3.00275 16.032 3ZM19.4037 16.0332C19.4015 17.8936 17.8941 19.4014 16.0337 19.4042H7.96766C6.10721 19.4014 4.59986 17.8936 4.59766 16.0332V7.96717C4.59986 6.10688 6.10737 4.59937 7.96766 4.59717H16.0327C17.8933 4.59882 19.4015 6.10649 19.4037 7.96717V16.0332ZM12.0044 7.36184C10.1282 7.36063 8.43614 8.48987 7.71732 10.2229C6.99851 11.9559 7.39457 13.9513 8.72079 15.2783C10.047 16.6054 12.0421 17.0028 13.7756 16.2851C15.5091 15.5674 16.6394 13.876 16.6394 11.9998C16.6372 9.4391 14.5622 7.3636 12.0014 7.36084L12.0044 7.36184ZM12.002 15.0411C10.772 15.0411 9.66304 14.3 9.19241 13.1636C8.72178 12.0271 8.98214 10.719 9.85207 9.84941C10.722 8.97977 12.0301 8.71984 13.1665 9.19084C14.3028 9.66185 15.0434 10.771 15.043 12.0011C15.0403 13.6803 13.6782 15.0401 11.999 15.0401L12.002 15.0411ZM16.8353 6.00881C16.2777 6.00966 15.7983 6.40419 15.6903 6.9512C15.5822 7.49821 15.8755 8.04541 16.3908 8.25827C16.9062 8.47114 17.5001 8.2904 17.8095 7.82656C18.119 7.36271 18.0578 6.7449 17.6633 6.35081C17.4425 6.13112 17.1438 6.0078 16.8323 6.00781L16.8353 6.00881Z" fill="#22BBB0"/>
</svg>
