<svg width="24" height="24" viewBox="0 0 24 24" fill="none" xmlns="http://www.w3.org/2000/svg">
<path d="M6.86447 20.9997H3.00732V8.14258H6.86447V20.9997ZM21.0073 20.9997H17.1502V14.1314C17.1502 12.3417 16.5125 11.4507 15.2486 11.4507C14.247 11.4507 13.6119 11.9496 13.293 12.9486V20.9997H9.4359C9.4359 20.9997 9.48732 9.42829 9.4359 8.14258H12.4805L12.7158 10.714H12.7955C13.5862 9.42829 14.85 8.55658 16.5832 8.55658C17.901 8.55658 18.9669 8.92301 19.7808 9.84358C20.5998 10.7654 21.0073 12.0023 21.0073 13.7393V20.9997Z" fill="#22BBB0"/>
<path d="M4.93573 6.85714C6.03635 6.85714 6.92859 5.99369 6.92859 4.92857C6.92859 3.86345 6.03635 3 4.93573 3C3.8351 3 2.94287 3.86345 2.94287 4.92857C2.94287 5.99369 3.8351 6.85714 4.93573 6.85714Z" fill="#22BBB0"/>
</svg>
