<svg width="24" height="24" viewBox="0 0 24 24" fill="none" xmlns="http://www.w3.org/2000/svg">
<path d="M21.5531 3.99921C21.4622 3.98985 21.3706 3.98985 21.2798 3.99921H2.6131C2.49346 4.00105 2.37462 4.01899 2.25977 4.05254L11.8931 13.6459L21.5531 3.99921Z" fill="#22BBB0"/>
<path d="M22.5404 4.92578L12.8338 14.5924C12.584 14.8408 12.246 14.9802 11.8938 14.9802C11.5415 14.9802 11.2036 14.8408 10.9538 14.5924L1.33378 4.99911C1.3042 5.10781 1.28852 5.21981 1.28711 5.33245V18.6658C1.28711 19.0194 1.42759 19.3585 1.67763 19.6086C1.92768 19.8586 2.26682 19.9991 2.62044 19.9991H21.2871C21.6407 19.9991 21.9799 19.8586 22.2299 19.6086C22.48 19.3585 22.6204 19.0194 22.6204 18.6658V5.33245C22.6151 5.19355 22.5881 5.05634 22.5404 4.92578ZM3.53378 18.6658H2.60711V17.7124L7.45378 12.9058L8.39378 13.8458L3.53378 18.6658ZM21.2738 18.6658H20.3404L15.4804 13.8458L16.4204 12.9058L21.2671 17.7124L21.2738 18.6658Z" fill="#22BBB0"/>
</svg>
