<svg width="24" height="24" viewBox="0 0 24 24" fill="none" xmlns="http://www.w3.org/2000/svg">
<path fill-rule="evenodd" clip-rule="evenodd" d="M21 5.77688C20.3285 6.08193 19.6126 6.283 18.878 6.37289C19.6589 5.88768 20.2356 5.14394 20.5029 4.27732C19.7827 4.71713 18.9883 5.02835 18.1569 5.19651C17.4746 4.43934 16.494 4.00388 15.4624 4C13.374 4.04944 11.7213 5.74488 11.7692 7.78858C11.7684 8.07856 11.8006 8.36772 11.8652 8.65074C8.85982 8.48005 6.07996 7.03537 4.25241 4.69442C3.92337 5.27619 3.75149 5.9305 3.75305 6.59542C3.74312 7.84545 4.35632 9.02178 5.39627 9.74773C4.80695 9.72772 4.232 9.56439 3.72334 9.27248V9.32056C3.69297 11.087 4.92689 12.6346 6.68525 13.0353C6.14243 13.1872 5.5703 13.2094 5.01689 13.1002C5.46404 14.6151 6.85633 15.6765 8.46673 15.7303C7.17743 16.7763 5.5558 17.3497 3.88103 17.3517C3.58649 17.3519 3.29223 17.334 3 17.298C4.67081 18.4062 6.6426 18.999 8.661 19C15.4533 19 19.1671 13.2288 19.1671 8.22469C19.1671 8.05919 19.1671 7.89705 19.1568 7.7349C19.8846 7.19391 20.5086 6.53099 21 5.77688Z" fill="#22BBB0"/>
</svg>
